<?xml version="1.0" encoding="utf-8"?>
<!-- Generator: Adobe Illustrator 17.0.0, SVG Export Plug-In . SVG Version: 6.00 Build 0)  -->
<!DOCTYPE svg PUBLIC "-//W3C//DTD SVG 1.1//EN" "http://www.w3.org/Graphics/SVG/1.1/DTD/svg11.dtd">
<svg version="1.1" id="Layer_1" xmlns="http://www.w3.org/2000/svg" xmlns:xlink="http://www.w3.org/1999/xlink" x="0px" y="0px"
	 width="1200px" height="1200px" viewBox="0 0 1200 1200" enable-background="new 0 0 1200 1200" xml:space="preserve">
<g>
	<path fill="teal" d="M1111.578,261.66H719.441c-2.838-33.678-11.892-70.613-34.882-98.857
		c-24.714-30.399-60.208-45.797-105.574-45.797c-48.566,0-86.897,15.796-113.926,46.955c-25.259,29.106-35.244,66.381-38.853,97.699
		H88.421C67.203,261.66,50,278.863,50,300.081v297.853h215.234c1.771-12.38,12.324-21.934,25.214-21.934
		c12.868,0,23.42,9.555,25.19,21.934h518.886c1.77-12.38,12.323-21.934,25.19-21.934c12.891,0,23.444,9.555,25.214,21.934H1150
		V300.081C1150,278.863,1132.774,261.66,1111.578,261.66z M480.786,261.66c3.064-21.344,10.076-44.776,25.35-62.296
		c16.499-18.939,40.328-28.153,72.849-28.153c28.595,0,49.338,8.409,63.431,25.701c13.73,16.817,20.152,40.782,22.649,64.747
		H480.786z"/>
	<path fill="teal" d="M885.315,678.194c0,14.139-11.438,25.611-25.6,25.611c-14.115,0-25.576-11.472-25.576-25.611v-32.873
		H316.024v32.873c0,14.139-11.437,25.611-25.576,25.611c-14.162,0-25.6-11.472-25.6-25.611v-32.873H50v399.251
		c0,21.22,17.203,38.421,38.421,38.421h1023.156c21.196,0,38.422-17.202,38.422-38.421V645.321H885.315V678.194z"/>
</g>
</svg>
